# xmcd CD database file
#
# Track frame offsets:
#	180
#	20548
#	34564
#	46751
#	60339
#	77135
#	87768
#	105667
#	119346
#	134468
#	150561
#	164762
#	180720
#	194297
#	210727
#	222429
#	236742
#	246972
#
# Disc length: 3473 seconds
#
# Revision: 2
# Processed by: cddbd v1.4b41PL1 Copyright (c) Steve Scherf et al.
# Submitted via: Feurio! 1.50.2ß - http://www.feurio.com
#
DISCID=f50d8f12
DTITLE=Various Artist - Truck Grand-Prix
DYEAR=1900
DGENRE=
TTITLE0=Gunter Gabriel - Er ist ein Kerl (der 30 Tonner Diesel)
TTITLE1=Jann Browne - Trouble's here
TTITLE2=Wanda Jackson - Oh lonesome me
TTITLE3=Tom Astor - Alter Freund, überhol dich nicht selber
TTITLE4=The Goods - Fox on the run
TTITLE5=Jonny Hill - König der Landstraße (King of the road)
TTITLE6=Buddy Spicher and Friends - Cotton Eyed Joe and Scottish Dance
TTITLE7=George and Lucky Riders - Is anybody goin to San Anton
TTITLE8=Dave Dudley - Deutschland Autobahn
TTITLE9=Truck Stop - Ich möcht' so gern' Dave Dudley hör'n
TTITLE10=Freddy Quinn - Take me home, country roads
TTITLE11=Dagmar - The Lady of country - Zu teuer
TTITLE12=Carry and Ron - Just enough
TTITLE13=Western Union - Unser Lied im Radio
TTITLE14=Professor Washboard and Hugh Pool - Freight train
TTITLE15=Tennessee - Hallo, liebe Hörer
TTITLE16=Gudrun Lange und Kactus - Ich tanz' im Regen
TTITLE17=Gunter Gabriel - Hey Boss, ich brauch mehr Geld
EXTD=
EXTT0=
EXTT1=
EXTT2=
EXTT3=
EXTT4=
EXTT5=
EXTT6=
EXTT7=
EXTT8=
EXTT9=
EXTT10=
EXTT11=
EXTT12=
EXTT13=
EXTT14=
EXTT15=
EXTT16=
EXTT17=
PLAYORDER=
